Coordinates
version=1
nRows=13
nColumns=36
inDegrees=yes

Units are S.I. units (second, meters, Newtons, ...)
If the header above contains a line with 'inDegrees', this indicates whether rotational values are in degrees (yes) or radians (no).

endheader
time	pelvis_tilt	pelvis_list	pelvis_rotation	pelvis_tx	pelvis_ty	pelvis_tz	hip_flexion_r	hip_adduction_r	hip_rotation_r	knee_angle_r	knee_angle_r_beta	ankle_angle_r	subtalar_angle_r	mtp_angle_r	hip_flexion_l	hip_adduction_l	hip_rotation_l	knee_angle_l	knee_angle_l_beta	ankle_angle_l	subtalar_angle_l	mtp_angle_l	lumbar_extension	lumbar_bending	lumbar_rotation	arm_flex_r	arm_add_r	arm_rot_r	elbow_flex_r	pro_sup_r	arm_flex_l	arm_add_l	arm_rot_l	elbow_flex_l	pro_sup_l
      6.35000000	      0.74890053	     13.90913138	     -4.64373514	      0.64025718	      0.92039241	     -0.28188384	      4.83988305	     -6.53857123	      6.34007152	      7.95897885	      0.13891039	      9.17563198	     -5.92973824	     -7.49999987	     54.66108162	      6.31056966	      3.43400358	     16.07019117	      0.28047775	     -8.49781582	      6.92982213	     -7.49999987	    -14.18855793	    -13.80661780	     -0.75293874	     53.44461156	      3.33245292	     62.58764087	    126.71187933	    101.81506414	     71.98283417	     16.53341167	     76.88339916	    122.14602207	     79.03581353
      6.36666670	      0.72275192	     13.67352924	     -4.67184097	      0.64029752	      0.92025043	     -0.28190262	      4.55183060	     -6.23512420	      6.90331729	      7.44386164	      0.12991989	      8.95980489	     -6.61086725	     -7.49999987	     54.04648863	      6.22185378	      4.99668810	     15.32362649	      0.26744774	     -9.16927772	      6.23601077	     -7.49999987	    -14.19570667	    -13.61445852	     -0.50203796	     53.34007168	      3.07889822	     62.53816406	    126.77074375	    102.58831422	     72.01218096	     16.67193436	     76.82565707	    122.03928456	     79.76929438
      6.38333330	      0.77554686	     13.52506038	     -4.60395291	      0.63761824	      0.92349505	     -0.28494646	      4.49194194	     -6.17070180	      6.96577896	      7.30509420	      0.12749795	      8.50628156	     -6.89976765	     -7.49999987	     53.25017770	      6.23413330	      5.53080720	     14.41786651	      0.25163924	    -10.42767962	      6.43490863	     -7.49999987	    -14.45264949	    -13.36378665	     -0.57399281	     53.43116631	      2.95504701	     62.95566503	    126.83582998	    102.60348697	     72.14173290	     16.74851521	     77.06840456	    121.95282496	     79.86318748
      6.40000000	      0.79422171	     13.65685934	     -4.16708284	      0.64199526	      0.92003553	     -0.28188341	      4.35364052	     -6.27998631	      6.74068983	      7.30185851	      0.12744147	      8.38673696	     -7.18043857	     -7.49999987	     52.74539536	      6.47919623	      5.84089980	     14.20881959	      0.24799068	    -11.38010676	      6.01857948	     -7.49999987	    -14.62538729	    -13.60736988	     -0.86111815	     53.16444243	      2.85797983	     62.92126842	    126.81288736	    101.65411830	     72.08536013	     16.62777457	     77.20200527	    122.21502244	     79.30668963
      6.41666670	      0.49877387	     13.43918164	     -3.88017191	      0.63833018	      0.91528878	     -0.28524144	      5.11405898	     -5.97417578	      6.64233504	      8.05967385	      0.14066785	      8.43489341	     -7.95949590	     -7.49999987	     52.71333106	      6.35542119	      6.05669447	     13.80676636	      0.24097353	    -12.05648139	      5.39793300	     -7.49999987	    -14.53110991	    -13.28948059	     -1.20531818	     53.20502313	      2.95636305	     62.91717283	    126.67113499	     99.81915756	     72.36590823	     16.59362428	     76.99583897	    122.28413023	     78.41594245
      6.43333330	      0.23404450	     13.35523371	     -3.68433805	      0.63849847	      0.91724952	     -0.28494696	      5.78440758	     -5.85500514	      6.26736500	      8.81403856	      0.15383399	      8.99234904	     -7.56410282	     -7.49999987	     52.52475431	      6.34533144	      6.91406228	     13.22908407	      0.23089107	    -12.82378006	      4.30537707	     -7.49999987	    -14.44857536	    -13.25827505	     -1.42865906	     52.91226055	      2.93470411	     62.59896636	    126.41113103	    102.47267992	     72.10480873	     16.42364973	     76.80897538	    122.32759867	     79.42018718
      6.45000000	     -0.17641466	     12.91944470	     -3.59983376	      0.63645938	      0.91373837	     -0.28756338	      6.94011864	     -5.35522025	      6.10600004	     10.09004708	      0.17610454	      9.53624622	     -7.59252084	     -7.49999987	     52.49589390	      6.05895234	      7.67479835	     12.79442639	      0.22330487	    -13.01119746	      2.76083243	     -7.49999987	    -14.26855023	    -12.68641304	     -1.51392994	     52.97748686	      2.92476741	     62.37892549	    126.18084216	    102.32271061	     72.15902894	     16.35172520	     76.51261586	    122.26898295	     79.39711011
      6.46666670	     -0.73558544	     12.48382084	     -3.32128717	      0.63620261	      0.90825701	     -0.28780598	      8.17630154	     -4.88888979	      5.68512789	     11.36898718	      0.19842626	     10.31741636	     -7.35037130	     -7.49999987	     52.51250425	      5.92314186	      8.87587354	     12.33564437	      0.21529761	    -12.82759116	      0.42163967	     -7.49999987	    -13.85452049	    -12.14895595	     -1.71897860	     53.16665742	      2.90673756	     62.11780596	    125.99445501	    100.43725227	     71.97625271	     16.46188430	     76.31880922	    122.19873614	     78.51730770
      6.48333330	     -1.51251889	     11.90509071	     -3.44547406	      0.63160864	      0.90680181	     -0.28618211	      9.94244550	     -4.10105696	      5.74848515	     12.84565432	      0.22419896	     11.04532788	     -7.26834751	     -7.49999987	     52.95744240	      5.22910408	      9.05011485	     12.23661496	      0.21356922	    -12.62232684	     -1.09914029	     -7.49999987	    -13.22310405	    -11.46348262	     -1.22650391	     53.74598397	      2.79222587	     61.86937994	    125.74716625	    100.69654891	     72.16651366	     16.93148500	     76.20103285	    122.20995527	     78.68906286
      6.50000000	     -2.09952610	     11.42232880	     -3.45502223	      0.63137316	      0.90748366	     -0.28618315	     11.70323666	     -3.50478461	      5.35727290	     14.78850523	      0.25810811	     12.18398675	     -6.89554871	     -7.49999987	     53.18491177	      4.89751760	      9.09590514	     12.23379420	      0.21351999	    -12.77086409	     -3.25038769	     -7.49999987	    -12.84969361	    -10.83438295	     -1.16271456	     54.23074705	      2.84813552	     61.63320652	    125.11360552	    100.14595697	     72.39449983	     16.75147098	     75.84909473	    122.35287231	     78.41163972
      6.51666670	     -2.74892162	     11.35376761	     -3.13985517	      0.63519274	      0.90588964	     -0.28859786	     12.77099050	     -3.48339889	      4.99811112	     15.69398490	      0.27391171	     12.81035944	     -6.79715343	     -7.49999987	     53.34531853	      5.16761489	      9.23276915	     12.27537526	      0.21424572	    -13.27876324	     -5.36459578	     -7.49999987	    -12.35195935	    -10.59174817	     -1.40212202	     54.33262248	      2.81618942	     61.61649994	    124.08254632	    100.48702583	     72.54955964	     16.52537237	     75.88069178	    122.41850527	     78.63988594
      6.53333330	     -3.05564727	     11.30559889	     -3.12978628	      0.63482408	      0.90624284	     -0.28849817	     12.97645186	     -3.36918158	      5.42224735	     15.59417922	      0.27216977	     13.04863146	     -7.23441845	     -7.49999987	     53.14890531	      5.30689049	      8.95417055	     12.41232447	      0.21663593	    -13.39385630	     -6.90896879	     -7.49999987	    -12.10689711	    -10.43164339	     -1.54955479	     54.29762201	      2.79161756	     61.82413649	    123.45334191	    100.10416051	     72.57198469	     16.29754736	     76.19287097	    122.55280298	     78.58947909
      6.55000000	     -3.10117174	     11.03647409	     -3.21102127	      0.63213236	      0.90540978	     -0.29164572	     13.36460410	     -3.15835567	      5.58672113	     16.21073137	      0.28293064	     13.41977448	     -7.53102555	     -7.49999987	     53.04268336	      5.36493113	      8.35798980	     12.90282830	      0.22519684	    -13.11718077	     -7.73779687	     -7.49999987	    -12.32044022	     -9.90188980	     -1.59857299	     54.36813122	      2.61558114	     61.86620305	    122.90409066	    100.15054375	     72.78316325	     16.27289380	     76.19179334	    122.24689546	     78.60946489
